<svg width="628" height="580" viewBox="0 0 628 580" fill="none" xmlns="http://www.w3.org/2000/svg">
<path d="M588.914 225.41C590.514 216.234 593.085 207.142 594.923 197.796C598.43 179.902 598.311 161.175 595.689 143.145C590.548 107.954 575.738 74.5003 555.413 47.2262C532.994 17.1259 499.271 -7.20285 462.995 1.95662C425.272 11.4906 393.337 40.5864 356.653 53.866C294.519 76.339 231.619 35.3768 168.991 36.7388C114.943 37.9135 58.2059 57.322 22.5938 105.316C8.02214 124.945 -2.0895 151.385 1.34914 177.263C5.55381 208.879 28.7391 232.935 46.0515 256.328C72.5732 292.182 82.5998 331.153 60.2997 373.068C45.2173 401.432 24.926 426.493 26.6793 461.718C29.4881 518.071 81.5103 552.104 124.408 567.29C167.97 582.715 217.473 584.383 260.796 566.949C299.285 551.457 326.147 517.526 361.13 495.955C392.622 476.529 428.524 469.073 464.136 473.346C501.212 477.789 540.279 485.57 576.113 469.6C610.397 454.312 626.637 413.333 627.914 374.09C628.544 354.511 625.735 334.677 619.232 316.46C611.282 294.225 593.68 276.894 588.744 253.297C586.718 243.661 587.348 234.485 588.914 225.41Z" fill="#1B2F46"/>
</svg>
